<?xml version="1.0" standalone="no"?><!DOCTYPE svg PUBLIC "-//W3C//DTD SVG 1.1//EN" "http://www.w3.org/Graphics/SVG/1.1/DTD/svg11.dtd"><svg t="1512005984711" class="icon" style="" viewBox="0 0 1024 1024" version="1.1" xmlns="http://www.w3.org/2000/svg" p-id="11264" xmlns:xlink="http://www.w3.org/1999/xlink" width="16" height="16"><defs><style type="text/css"></style></defs><path d="M170.814 171.363V100.88c0-2.997 1.099-5.96 3.324-8.208 2.26-2.284 5.188-3.414 8.196-3.414h81.09c3.473 0.349 15.53 2.495 15.53 17.805v64.299h-108.14zM100.16 230.56c-8.786 0-11.944-7.295-12.538-11.592V160.132H438.67a22.981 22.981 0 0 1 16.346 6.801 23.16 23.16 0 0 1 6.77 16.386v47.242H100.16z m125.297 561.455h1.768c35.503-0.897 71.183-11.07 88.832-30.363 21.129-22.894 23.647-52.849 23.056-69.293h-0.06V394.498c0-11.767-2.833-19.61-13.805-19.61h-63.912l-2.185-70.4h107.884c30.353 0 81.246 11.987 81.246 92.566V649.36c-0.132 77.282-25.33 134.232-74.921 169.24-35.87 25.22-83.623 39.196-146.027 42.533l-1.877 0.205v-69.322z m-163.873 2.035l0.753-0.612c79.508-101.66 105.58-269.273 108.477-417.782 1.037-56.072 0-167.063 0-167.063l108.14 5.23v178.363c0 246.133-89.99 385.39-191.679 468.772l-2.082 1.109-23.609-68.017z m512.66 66.97c-8.195 0-80.006-2.355-80.006-84.492V381.582c0-61.997 43.02-91.372 87.344-93.291l30.873-0.29c9.31 0 227.912-0.292 301.978-24.64l1.797-0.566 0.491 1.833c2.724 10.991 5.978 25.74 8.912 38.698 2.191 9.734 4.1 18.185 5.435 23.692l0.45 1.612-1.67 0.524c-51.865 16.736-145.207 27.296-284.97 29.345-25.546 0.334-32.597 19.903-32.597 40.135v368.92c0.174 16.993 11.235 19.117 19.548 19.117 1.864-0.348 23.084-4.446 95.962-23.387l1.897-0.444 10.238 65.666-1.391 0.523c-0.91 0.32-91.062 30.654-163.483 31.991l-0.808 0.001z m-41.398-645.79c-30.024 0-41.282-21.15-41.991-39.961h-0.058v-74.39c0-2.997 1.099-5.96 3.401-8.208a11.36 11.36 0 0 1 8.105-3.414h92.16c3.546 0.349 14.319 2.6 14.319 18.61v36.88h292.042c5.95 0 11.86 2.282 16.375 6.787 4.46 4.514 6.704 10.458 6.704 16.399v47.297H532.846zM888.421 861.4C727.258 715.69 676.205 558.567 661.73 497.756c-4.91-20.177-3.012-37.16 5.646-50.467 14.327-21.864 41.524-25.854 42.671-26.03 139.482-11.042 208.251-31.438 208.874-31.596l2.271-0.715v66.725l-1.16 0.462c-41.685 15.765-107.948 26.25-148.003 29.739-11.06 0.956-17.69 11.768-12.26 26.788 47.636 131.673 198.134 248.064 199.739 249.165l1.549 1.047-71.216 99.86-1.421-1.334z" p-id="11265" fill="#aaaaaa"></path></svg>